# xmcd CD database file
#
# Track frame offsets:
#	150
#	6445
#	30095
#	62041
#	81307
#	105458
#	122456
#	146217
#	158699
#	183713
#	199970
#	230929
#	248926
#	264024
#	286458
#
# Disc length: 4076 seconds
#
# Revision: 1
# Processed by: cddbd v1.5.2PL0 Copyright (c) Steve Scherf et al.
# Submitted via: CDex 1.70beta2
#
DISCID=d20fea0f
DTITLE=Lambchop - Rainer On My Parade
DYEAR=2008
DGENRE=Alternative
TTITLE0=I'm Glad I Never [Lee Hazelwood]
TTITLE1=Seemingly Stranded [David Kilgour]
TTITLE2=Miss Prissy [Vic Chesnutt]
TTITLE3=Beyond Belief [Elvis Costello]
TTITLE4=Give Me Your Love [Curtis Mayfield]
TTITLE5=I've Been Lonely For So Long [Posie Knight and Jerry Weaver]
TTITLE6=Love T.K.O. [Teddy Pendergrass]
TTITLE7=Hey, Where's Your Girl [F. M. Cornog]
TTITLE8=Why Can't I Touch It [Buzzocks]
TTITLE9=(Get A) Grip (On Yourself) [Stranglers]
TTITLE10=This Corrosion [Sisters of Mercy]
TTITLE11=Fall Of Troy [Tom Waits]
TTITLE12=Chelsea Hotel #2 [Leonard Cohen]
TTITLE13=Give It [X-press and Kurt Wagner]
TTITLE14=Where Or When [Rogers And Hart]
EXTD=YEAR: 2008
EXTT0=
EXTT1=
EXTT2=
EXTT3=
EXTT4=
EXTT5=
EXTT6=
EXTT7=
EXTT8=
EXTT9=
EXTT10=
EXTT11=
EXTT12=
EXTT13=
EXTT14=
PLAYORDER=
